<?xml version="1.0" encoding="iso-8859-1"?>
<!-- Generator: Adobe Illustrator 19.0.0, SVG Export Plug-In . SVG Version: 6.00 Build 0)  -->
<svg version="1.1" id="Layer_1" xmlns="http://www.w3.org/2000/svg" xmlns:xlink="http://www.w3.org/1999/xlink" x="0px" y="0px"
	 viewBox="0 0 512 512" style="enable-background:new 0 0 512 512;" xml:space="preserve">
<g>
	<g>
		<g>
			<path d="M342.981,251.993c-4.143,0-7.5,3.357-7.5,7.5v27.709c0,4.143,3.357,7.5,7.5,7.5s7.5-3.357,7.5-7.5v-27.709
				C350.481,255.351,347.124,251.993,342.981,251.993z"/>
			<path d="M113.754,279.563c4.143,0,7.5-3.357,7.5-7.5V15h269.492v257.172c0,4.143,3.357,7.5,7.5,7.5s7.5-3.357,7.5-7.5V13.358
				C405.746,5.992,399.754,0,392.388,0H119.612c-7.366,0-13.358,5.992-13.358,13.358v258.705
				C106.254,276.206,109.611,279.563,113.754,279.563z"/>
			<path d="M433.86,467.137h-28.114V302.375c0-4.143-3.357-7.5-7.5-7.5s-7.5,3.357-7.5,7.5v164.762h-15.893V39.76
				c0-7.366-5.992-13.358-13.358-13.358h-210.99c-7.366,0-13.358,5.992-13.358,13.358v427.377h-15.893v-164.84
				c0-4.143-3.357-7.5-7.5-7.5s-7.5,3.357-7.5,7.5v164.84H78.14c-7.114,0-12.901,5.787-12.901,12.901v19.061
				c0,7.114,5.787,12.901,12.901,12.901h355.72c7.114,0,12.901-5.787,12.901-12.901v-19.061
				C446.762,472.924,440.975,467.137,433.86,467.137z M152.146,41.401h207.707v425.735H152.146V41.401z M80.238,497v-14.863h351.523
				V497H80.238z"/>
			<path d="M337.123,73.277H177.584c-7.366,0-13.358,5.993-13.358,13.359v86.44c0,7.366,5.992,13.358,13.358,13.358h159.539
				c7.366,0,13.358-5.992,13.358-13.358v-86.44C350.481,79.271,344.489,73.277,337.123,73.277z M335.482,171.436L335.482,171.436
				H179.226V88.277h156.256V171.436z"/>
		</g>
	</g>
</g>
<g>
</g>
<g>
</g>
<g>
</g>
<g>
</g>
<g>
</g>
<g>
</g>
<g>
</g>
<g>
</g>
<g>
</g>
<g>
</g>
<g>
</g>
<g>
</g>
<g>
</g>
<g>
</g>
<g>
</g>
</svg>
