<svg id="Layer_1" enable-background="new 0 0 512 512" height="512" viewBox="0 0 512 512" width="512" xmlns="http://www.w3.org/2000/svg"><g><path d="m450.979 62.991h-28.024c-4.143 0-7.5 3.358-7.5 7.5s3.357 7.5 7.5 7.5h28.024c6.368 0 11.549 5.181 11.549 11.549s-5.181 11.549-11.549 11.549h-198.054c-19.353 0-35.901 14.197-38.495 33.023-1.476 10.711-6.309 20.426-13.978 28.095-19.236 19.237-50.536 19.236-69.772 0-19.237-19.237-19.237-50.537 0-69.773 10.486-10.485 22.783-13.253 36.961-14.443h215.352c4.143 0 7.5-3.358 7.5-7.5s-3.357-7.5-7.5-7.5h-86.343v-35.491c0-15.164-12.337-27.5-27.5-27.5h-207.177c-15.163 0-27.5 12.336-27.5 27.5v457c0 15.164 12.337 27.5 27.5 27.5h207.177c15.163 0 27.5-12.336 27.5-27.5v-368.411h154.328c14.639 0 26.549-11.91 26.549-26.549s-11.91-26.549-26.548-26.549zm-169.329 421.509c0 6.893-5.607 12.5-12.5 12.5h-207.177c-6.893 0-12.5-5.607-12.5-12.5v-457c0-6.893 5.607-12.5 12.5-12.5h207.177c6.893 0 12.5 5.607 12.5 12.5v35.491h-114.646c-35.536 0-65.775 27.996-65.775 64.33 0 35.018 29.313 64.307 64.338 64.307 31.651 0 59.402-24.09 63.723-55.469 1.576-11.441 11.737-20.07 23.636-20.07h28.726v368.411z"/><path d="m146.229 127.321c0-9.697-15-9.697-15 0 0 18.612 15.725 34.337 34.337 34.337 9.697 0 9.697-15 0-15-10.301 0-19.337-9.036-19.337-19.337z"/><path d="m165.562 282.833c-47.972 0-87 39.028-87 87 0 17.871 5.397 35.056 15.607 49.699 5.546 7.955 17.851-.625 12.305-8.58-8.447-12.113-12.912-26.333-12.912-41.119 0-39.701 32.299-72 72-72s72 32.299 72 72-32.299 72-72 72c-11.591 0-22.68-2.689-32.956-7.992-8.619-4.443-15.497 8.883-6.879 13.33 12.425 6.411 25.827 9.662 39.835 9.662 47.972 0 87-39.028 87-87s-39.029-87-87-87z"/><path d="m165.562 411.667c4.143 0 7.5-3.358 7.5-7.5v-26.16c10.448-3.213 18.065-12.953 18.065-24.441 0-14.097-11.469-25.565-25.565-25.565s-25.565 11.469-25.565 25.565c0 11.488 7.617 21.228 18.065 24.441v26.16c0 4.142 3.357 7.5 7.5 7.5zm-10.566-58.102c0-5.826 4.739-10.565 10.565-10.565s10.565 4.74 10.565 10.565-4.739 10.565-10.565 10.565-10.565-4.739-10.565-10.565z"/></g></svg>