<svg id="Capa_1" enable-background="new 0 0 512 512" height="512" viewBox="0 0 512 512" width="512" xmlns="http://www.w3.org/2000/svg"><g><path d="m455.25 0h-398.5c-4.142 0-7.5 3.357-7.5 7.5v497c0 4.143 3.358 7.5 7.5 7.5h308.5c4.142 0 7.5-3.357 7.5-7.5v-459.5h45v459.5c0 4.143 3.358 7.5 7.5 7.5h30c4.142 0 7.5-3.357 7.5-7.5v-497c0-4.143-3.358-7.5-7.5-7.5zm-361 497v-452h233.5v452zm263.5 0h-15v-452h15zm90 0h-15v-459.5c0-4.143-3.358-7.5-7.5-7.5h-338.5c-4.142 0-7.5 3.357-7.5 7.5v459.5h-15v-482h383.5z"/><path d="m290.25 278.5c-12.407 0-22.5 10.094-22.5 22.5s10.093 22.5 22.5 22.5 22.5-10.094 22.5-22.5-10.093-22.5-22.5-22.5zm0 30c-4.136 0-7.5-3.364-7.5-7.5s3.364-7.5 7.5-7.5 7.5 3.364 7.5 7.5-3.364 7.5-7.5 7.5z"/><path d="m282.75 256v-158.5c0-4.143-3.358-7.5-7.5-7.5h-128.5c-4.142 0-7.5 3.357-7.5 7.5v158.5c0 4.143 3.358 7.5 7.5 7.5h128.5c4.142 0 7.5-3.357 7.5-7.5zm-15-7.5h-113.5v-143.5h113.5z"/></g></svg>