<svg id="Capa_1" enable-background="new 0 0 512 512" height="512" viewBox="0 0 512 512" width="512" xmlns="http://www.w3.org/2000/svg"><g><path d="m439.5 109h-9v-48c0-12.407-10.093-22.5-22.5-22.5h-15c-12.407 0-22.5 10.093-22.5 22.5v130h-60c-9.649 0-17.5 7.851-17.5 17.5v52c0 9.649 7.851 17.5 17.5 17.5h60v50c0 4.142 3.358 7.5 7.5 7.5s7.5-3.358 7.5-7.5v-267c0-4.136 3.364-7.5 7.5-7.5h15c4.136 0 7.5 3.364 7.5 7.5v390c0 4.136-3.364 7.5-7.5 7.5h-15c-4.136 0-7.5-3.364-7.5-7.5v-88c0-4.142-3.358-7.5-7.5-7.5h-67.5c-9.649 0-17.5 7.851-17.5 17.5v52c0 9.649 7.851 17.5 17.5 17.5h60v8.5c0 12.407 10.093 22.5 22.5 22.5h15c12.407 0 22.5-10.093 22.5-22.5v-173h9c39.977 0 72.5-32.523 72.5-72.5v-24c0-39.977-32.523-72.5-72.5-72.5zm-131.5 151.5v-52c0-1.378 1.122-2.5 2.5-2.5h12.5v57h-12.5c-1.378 0-2.5-1.122-2.5-2.5zm30 2.5v-57h32.5v57zm-30 162v-52c0-1.378 1.122-2.5 2.5-2.5h12.5v57h-12.5c-1.378 0-2.5-1.122-2.5-2.5zm30 2.5v-57h32.5v57zm92.5-273.5h9c15.164 0 27.5 12.336 27.5 27.5v24c0 15.164-12.336 27.5-27.5 27.5h-9zm66.5 51.5c0 31.706-25.794 57.5-57.5 57.5h-9v-15h9c23.435 0 42.5-19.065 42.5-42.5v-24c0-23.435-19.065-42.5-42.5-42.5h-9v-15h9c31.706 0 57.5 25.794 57.5 57.5z"/><path d="m215.5 38.5h-113c-4.142 0-7.5 3.358-7.5 7.5s3.358 7.5 7.5 7.5h113c17.92 0 32.5 14.58 32.5 32.5v340c0 17.92-14.58 32.5-32.5 32.5h-168c-17.92 0-32.5-14.58-32.5-32.5v-340c0-17.92 14.58-32.5 32.5-32.5h20c4.142 0 7.5-3.358 7.5-7.5s-3.358-7.5-7.5-7.5h-20c-26.191 0-47.5 21.309-47.5 47.5v340c0 26.191 21.309 47.5 47.5 47.5h168c26.191 0 47.5-21.309 47.5-47.5v-340c0-26.191-21.309-47.5-47.5-47.5z"/><path d="m210.5 278c12.407 0 22.5-10.093 22.5-22.5v-74c0-39.977-32.523-72.5-72.5-72.5h-58c-39.977 0-72.5 32.523-72.5 72.5v74c0 12.407 10.093 22.5 22.5 22.5s22.5-10.093 22.5-22.5v-74c0-15.164 12.336-27.5 27.5-27.5h58c15.164 0 27.5 12.336 27.5 27.5v74c0 12.407 10.093 22.5 22.5 22.5zm-50-139h-58c-23.435 0-42.5 19.065-42.5 42.5v74c0 4.136-3.364 7.5-7.5 7.5s-7.5-3.364-7.5-7.5v-74c0-31.706 25.794-57.5 57.5-57.5h58c31.706 0 57.5 25.794 57.5 57.5v74c0 4.136-3.364 7.5-7.5 7.5s-7.5-3.364-7.5-7.5v-74c0-23.435-19.065-42.5-42.5-42.5z"/></g></svg>