<?xml version="1.0" encoding="iso-8859-1"?>
<!-- Generator: Adobe Illustrator 19.0.0, SVG Export Plug-In . SVG Version: 6.00 Build 0)  -->
<svg version="1.1" id="Layer_1" xmlns="http://www.w3.org/2000/svg" xmlns:xlink="http://www.w3.org/1999/xlink" x="0px" y="0px"
	 viewBox="0 0 511.999 511.999" style="enable-background:new 0 0 511.999 511.999;" xml:space="preserve">
<g>
	<g>
		<path d="M310.623,71.683c-7.051,7.052-10.935,16.427-10.934,26.398c0,20.585,16.747,37.333,37.333,37.333
			c20.585,0,37.333-16.747,37.333-37.333C374.355,64.938,334.066,48.24,310.623,71.683z M337.023,120.414
			c-12.314,0-22.332-10.019-22.332-22.332c0-5.966,2.322-11.573,6.54-15.791c4.218-4.218,9.826-6.541,15.792-6.541
			c12.313,0,22.332,10.019,22.332,22.332C359.355,110.395,349.337,120.414,337.023,120.414z"/>
	</g>
</g>
<g>
	<g>
		<path d="M429.665,60.157c-2.805-3.048-7.55-3.244-10.598-0.438c-3.047,2.806-3.243,7.55-0.438,10.598
			c18.889,20.518,29.292,47.188,29.292,75.095c-0.001,36.799-18.06,70.871-48.407,91.603H274.528
			c-89.315-61.006-47.116-202.503,62.494-202.503c22.745,0,44.602,6.833,63.206,19.761c3.4,2.364,8.076,1.522,10.438-1.88
			c2.363-3.401,1.523-8.074-1.88-10.438c-26.5-18.414-58.561-25.696-89.993-21.118C297.7,6.925,273.492,0,249.574,0
			c-44.897,0-86.718,24.128-109.143,62.97c-20.617,35.711-22.443,78.801-5.114,116.072l-8.55,14.808
			c-5.164,8.943-2.107,20.362,6.839,25.527l3.273,1.89c-18.117,31.381-18.192,30.462-17.853,33.771
			c0.372,3.606,2.075,20.131,2.449,23.76c-22.488,10.282-21.472,9.672-22.659,10.76c-1.703,1.56-2.628,3.857-2.401,6.241
			l2.161,22.715l-20.753,9.486c-2.905,1.328-4.65,4.351-4.349,7.531l2.156,22.677l-21.697,9.731
			c-1.813,0.813-3.229,2.312-3.938,4.168c-0.95,2.489-1.162,5.191-0.613,7.813l11.482,54.827
			c1.774,8.458,10.715,13.638,18.949,10.937l53.223-17.468c3.262-1.072,5.991-3.28,7.686-6.217l45.913-79.525
			c2.071-3.587,0.842-8.174-2.745-10.245c-3.589-2.07-8.175-0.843-10.245,2.745l-45.678,79.118L75.47,431.323l-0.273-1.306
			l89.452-154.938l32.682,18.869l-11.428,19.793c-2.071,3.587-0.842,8.174,2.745,10.245c3.585,2.07,8.174,0.843,10.245-2.745
			c16.561-28.684,11.129-19.274,27.79-48.135c9.049,5.056,20.268,1.75,25.297-6.963l8.553-14.813
			c1.391-0.125,2.79-0.289,4.191-0.463v14.723c0.002,10.304,8.385,18.686,18.688,18.686h3.779c0,36.948-0.444,35.59,1.424,38.171
			l14.001,19.353l-13.204,18.558c-1.852,2.603-1.852,6.093,0,8.695l13.229,18.594l-13.228,18.591c-1.853,2.604-1.853,6.094,0,8.697
			l13.205,18.558c-14.93,20.67-15.871,20.94-15.252,24.844c0.832,5.249-0.237,3.05,40.734,48.826
			c5.776,6.446,16.1,6.446,21.88-0.003l37.35-41.733c2.294-2.558,3.557-5.836,3.557-9.231v-94.36c0-4.143-3.358-7.5-7.5-7.5
			c-4.143,0-7.5,3.357-7.5,7.5v93.886l-36.848,41.171l-0.891-0.995V316.993h37.738v20.996c0,4.142,3.357,7.5,7.5,7.5
			c4.142,0,7.5-3.358,7.5-7.5c0-10.876,0-42.511,0-53.725c10.184-0.143,18.426-8.459,18.426-18.675v-17.1
			C472.006,204.489,480.905,115.814,429.665,60.157z M153.423,70.47C173.176,36.256,210.02,15,249.574,15
			c16.515,0,32.877,3.749,47.8,10.902C212.586,54.094,183.563,159.13,240.918,226.76l-91.375-52.756
			C133.626,140.875,135.023,102.338,153.423,70.47z M70.588,408.002l-5.952-28.423l22.039-9.885
			c2.933-1.315,4.701-4.353,4.397-7.553l-2.16-22.717l20.753-9.486c2.905-1.328,4.65-4.352,4.348-7.531l-2.16-22.715
			c22.073-10.092,21.018-9.551,21.793-10.067c2.278-1.517,3.592-4.196,3.303-7.012l-2.579-25.015l17.29,9.982L70.588,408.002z
			 M204.834,280.958c-13.157-7.597-50.617-29.224-63.821-36.848l8.857-15.343c43.471,25.097,29.466,17.012,63.821,36.847
			L204.834,280.958z M233.956,259.994c-99.581-57.496-94.013-53.781-94.565-55.846c-0.514-1.906-0.157-1.888,7.155-14.554
			l99.236,57.293C239.352,258.025,238.061,262.367,233.956,259.994z M323.152,479.139l-19.365-21.637
			c15.075-20.871,14.344-19.769,14.763-20.598c1.237-2.455,1.044-5.433-0.587-7.725l-13.229-18.591l13.229-18.591
			c1.62-2.278,1.822-5.235,0.607-7.682c-0.411-0.83,0.239,0.176-13.837-19.608l13.229-18.594c1.864-2.62,1.851-6.138-0.035-8.744
			l-14.74-20.375h19.965V479.139z M375.889,301.993c-7.357,0-65.276,0-73.694,0v-17.715h73.694V301.993z M394.316,265.59
			c0,2.033-1.654,3.688-3.688,3.688c-16.186,0-93.326,0-107.213,0c-2.033,0-3.688-1.654-3.688-3.688v-13.574h114.589V265.59z"/>
	</g>
</g>
<g>
</g>
<g>
</g>
<g>
</g>
<g>
</g>
<g>
</g>
<g>
</g>
<g>
</g>
<g>
</g>
<g>
</g>
<g>
</g>
<g>
</g>
<g>
</g>
<g>
</g>
<g>
</g>
<g>
</g>
</svg>
