<svg id="Layer_1" enable-background="new 0 0 511.776 511.776" height="512" viewBox="0 0 511.776 511.776" width="512" xmlns="http://www.w3.org/2000/svg"><g><path d="m462.306 453.579-14.031-32.586c-3.835-8.907-17.611-2.974-13.777 5.933l14.031 32.587c.276.64.252 1.359-.064 1.972l-15.939 30.843c-.506.976-1.649 1.461-2.719 1.153l-33.266-9.556c-2.074-.595-5.026-7.403-4.148-9.332l5.047-11.062c4.198-9.208-.641-20.336-10.205-23.603l-11.412-3.895c-2.424-.827-8.802-15.582-7.745-17.909l5.046-11.063c4.202-9.207-.64-20.338-10.204-23.602l-11.411-3.895c-2.422-.825-8.805-15.586-7.745-17.909l5.045-11.063c4.202-9.207-.64-20.338-10.204-23.602l-11.41-3.894c-.638-.218-1.155-.695-1.42-1.31l-17.665-41.025c-1.256-2.916-4.209-4.72-7.378-4.518-2.326.152-4.603.229-6.764.229-8.305 0-16.436-.979-24.328-2.911l11.775-4.341c12.1-4.46 22.008-13.771 27.185-25.546l32.875-74.791c10.401-23.662-.974-52.319-24.572-62.572l-59.623-25.903c11.639-4.479 24.086-6.815 36.689-6.815 56.101 0 101.742 45.505 101.742 101.439 0 27.998-11.782 55.025-32.325 74.152-2.32 2.16-3.031 5.544-1.778 8.456l57.21 132.864c3.75 8.71 17.604 2.958 13.777-5.933l-55.175-128.129c21.219-21.666 33.288-51.037 33.288-81.409 0-45.993-26.876-85.839-65.784-104.746-3.629-28.144-21.693-52.307-47.993-63.733-42.832-18.608-94.159 3.954-109.382 48.085-18.215.192-35.547 10.808-43.316 28.483l-3.618 8.23c-3.903 8.877 9.83 14.914 13.732 6.036l3.618-8.23c4.786-10.89 14.869-17.873 25.931-19.273-1.865 13.486-.281 27.286 4.82 40.306 2.372 6.055 5.427 11.714 9.062 16.915-1.062 1.705-2.008 3.499-2.826 5.374-9.07 20.788.48 45.108 21.289 54.215 20.486 8.967 45.293-.757 54.209-21.189 9.069-20.787-.48-45.108-21.289-54.215-13.248-5.799-29.228-4.024-40.884 4.509-2.183-3.477-4.064-7.176-5.594-11.08-4.207-10.738-5.473-22.129-3.857-33.246.746.262 1.489.542 2.226.862l109.872 47.734c16.18 7.03 23.98 26.486 16.816 42.778l-32.875 74.791c-3.546 8.068-10.341 14.449-18.64 17.509l-66.607 24.554c-1.911.704-3.453 2.155-4.272 4.019l-88.896 202.237c-.278.634-.82 1.105-1.487 1.293l-33.459 9.457c-1.074.306-2.227-.201-2.737-1.202l-15.699-30.74c-.979-1.915 2.012-8.714 4.011-9.386l11.598-3.9c9.573-3.219 14.408-14.32 10.266-23.527l-4.952-11.004c-1.046-2.322 5.425-17.057 7.836-17.869l11.598-3.899c9.573-3.22 14.407-14.32 10.266-23.527l-4.952-11.005c-1.045-2.319 5.428-17.06 7.836-17.868l11.598-3.899c9.573-3.219 14.408-14.321 10.266-23.527l-4.952-11.005c-.271-.602-.275-1.292-.01-1.894l18.413-41.89c.824-1.875.846-4.005.06-5.896l-27.122-65.275c-3.371-8.114-3.274-17.388.267-25.444l13.193-30.014c3.902-8.877-9.829-14.914-13.732-6.036l-13.193 30.015c-5.18 11.787-5.32 25.358-.386 37.235l25.892 62.314-17.122 38.953c-1.972 4.483-1.949 9.619.062 14.088l4.951 11.004c.479 1.459.023 2.51-1.367 3.154l-11.599 3.9c-11.123 3.742-21.568 27.496-16.732 38.242l4.951 11.004c.478 1.459.023 2.51-1.367 3.154l-11.599 3.9c-11.124 3.742-21.568 27.496-16.732 38.242l4.951 11.003c.479 1.459.023 2.511-1.367 3.155l-11.598 3.9c-10.585 3.559-17.61 20.595-12.589 30.426l15.699 30.739c3.718 7.281 12.343 11.03 20.178 8.814l33.458-9.457c4.992-1.412 9.052-4.944 11.14-9.691l87.614-199.32 29.506-10.877c15.371 6.701 32.313 10.022 49.076 9.65l15.619 36.274c1.938 4.499 5.71 7.988 10.35 9.572l11.412 3.895c1.41.652 1.877 1.713 1.402 3.181l-5.047 11.064c-4.874 10.691 5.395 34.522 16.548 38.329l11.412 3.895c1.41.652 1.877 1.713 1.401 3.181l-5.046 11.064c-4.873 10.691 5.394 34.523 16.548 38.329l11.411 3.894c1.41.653 1.878 1.714 1.403 3.182l-5.046 11.062c-4.642 10.172 3.042 26.927 13.653 29.974l33.266 9.556c7.805 2.243 16.438-1.434 20.186-8.683l15.94-30.845c2.382-4.621 2.57-10.012.511-14.793zm-239.218-328.949c6.37-2.496 13.821-2.329 20.059.401 8.947 3.916 14.618 12.251 15.58 21.321-7.19-.598-14.211-2.348-20.93-5.267-7.605-3.304-14.373-7.913-20.093-13.554 1.661-1.154 3.452-2.144 5.384-2.901zm-14.75 14.738c6.765 6.401 14.67 11.647 23.481 15.475 7.733 3.36 15.795 5.477 24.057 6.328-6.226 11.919-21.274 17.185-33.621 11.782-12.945-5.665-19.039-20.573-13.917-33.585zm-1.31-80.79c-1.438-.625-2.891-1.168-4.354-1.641 13.519-34.506 54.294-51.389 88.281-36.624 18.739 8.141 32.344 24.217 37.44 43.451-29.521-9.106-62.347-5.953-89.585 8.622z"/><path d="m99.163 468.565c3.552 1.551 8.308-.289 9.873-3.875l68.127-156.138c3.877-8.888-9.868-14.887-13.748-5.999l-68.127 156.139c-1.656 3.797.079 8.217 3.875 9.873z"/><path d="m354.211 298.679c-3.797 1.656-5.531 6.077-3.875 9.874l68.127 156.138c3.791 8.689 17.618 2.872 13.748-5.999l-68.127-156.138c-1.657-3.797-6.079-5.534-9.873-3.875z"/></g></svg>